<svg version="1.1" class="big-cursor smile-picto" xmlns="http://www.w3.org/2000/svg" xmlns:xlink="http://www.w3.org/1999/xlink" x="0px" y="0px" style="enable-background:new 0 0 200 200" xml:space="preserve" viewBox="0 0 200 200"> <style>.stoke-svg{stroke-width:5px;stroke-linecap:round;stroke-linejoin:round;stroke-miterlimit:10}</style> <g id="Smile"> <path class="path-1" d="M100,0C44.86,0,0,44.86,0,100c0,55.14,44.86,100,100,100c55.14,0,100-44.86,100-100C199.99,44.86,155.14,0,100,0z&#10;   M192.83,100c0,51.19-41.64,92.83-92.84,92.83S7.16,151.19,7.16,100C7.16,48.81,48.8,7.16,100,7.16S192.83,48.81,192.83,100z"/> <path class="path-2" d="M76.8 81.66 C83.62 81.66 89.15 92.25 89.15 76.25 89.15 60.24 83.62 47.25 76.8 47.25 69.97 47.25 64.45 60.24 64.45 76.25 64.45 92.25 69.99 81.66 76.8 81.66 " data-original="M89.15,76.25 C89.15,92.26073 83.62072,105.24 76.8,105.24 69.97928,105.24 64.45,92.26073 64.45,76.25 64.45,60.23927 69.97928,47.26 76.8,47.26 83.62072,47.26 89.15,60.23927 89.15,76.25 z"/> <path class="path-3" d="M123.19 81.66 C130.01 81.66 135.54 92.25 135.54 76.25 135.54 60.24 130.01 47.25 123.19 47.25 116.37 47.25 110.84 60.24 110.84 76.25 110.84 92.25 116.37 81.66 123.19 81.66 " data-original="M135.54,76.25 C135.54,92.26073 130.01072,105.24 123.19,105.24 116.36928,105.24 110.84,92.26073 110.84,76.25 110.84,60.23927 116.36928,47.26 123.19,47.26 130.01072,47.26 135.54,60.23927 135.54,76.25 z"/> </g> <g id="Mouse"> <path id="Bouche_00000109748519867399197250000008741525510508320417_" class="classic-stroke none-fill path-4 stoke-svg" d="M57.8 109.97 C65.56 125.88 81.63 135.96 99.31 136.07 117.13 136.17 133.42 126.14 141.29 110.12 " data-original="M57.8,128.95&#10;  c7.66,15.78,23.3,25.68,40.68,26.09c18.15,0.43,34.79-9.44,42.81-25.93"/> <path id="Fossette2" class="classic-stroke none-fill path-5 stoke-svg" d="M151.34 107.28 C148.83 109.61 145.33 110.6 141.97 109.9 138.79 109.27 136.09 107.22 134.62 104.36 " data-original="M151.34,126.26c-2.84,2.58-6.91,3.54-10.62,2.31c-2.68-0.89-4.83-2.8-6.1-5.23"/> <path id="Fossette13" class="classic-stroke none-fill path-6 stoke-svg" d="M47.73 107.28 C50.25 109.61 53.74 110.6 57.11 109.9 60.28 109.27 62.98 107.22 64.45 104.36 " data-original="M47.73,126.26c2.84,2.58,6.91,3.54,10.62,2.31c2.68-0.89,4.83-2.8,6.1-5.23"/> <path id="Trait-pr-sourire" class="classic-stroke none-fill path-7 stoke-svg" d="M58.25 109.66 C64.75 122.27 71.63 134.62 78.73 146.6 83.23 153.55 91.1 157.86 99.61 157.87 108.2 157.88 116.12 153.56 120.63 146.58 127.66 134.65 134.44 122.32 140.82 109.69 " data-original="M57.8,128.95c7.66,15.78,23.3,25.68,40.68,26.09c18.15,0.43,34.79-9.44,42.81-25.93"/> </g> <g id="Smile-end"> <path class="path-1" d="M100,0A100,100,0,1,0,200,100,100.11,100.11,0,0,0,100,0Zm92.83,100A92.84,92.84,0,1,1,100,7.16,92.94,92.94,0,0,1,192.83,100Z"/> <path class="path-2" id="Oeil-gauche" d="M76.8,76.25c6.82,0,12.35,16,12.35,0s-5.53-29-12.35-29-12.35,13-12.35,29S70,76.25,76.8,76.25Z"/> <path class="path-3" id="Oeil-droit" d="M123.2,76.25c6.82,0,12.35,16,12.35,0s-5.53-29-12.35-29-12.35,13-12.35,29S116.38,76.25,123.2,76.25Z"/> </g> <g id="Mouse-end"> <path id="Bouche-2" data-name="Bouche" class="classic-stroke none-fill path-4" d="M57.8,105.61a46.5,46.5,0,0,0,83.5.15"/> <path id="Fosette2" class="classic-stroke none-fill path-5" d="M151.35,102.92A10.65,10.65,0,0,1,134.62,100"/> <path id="Fosette1" class="classic-stroke none-fill path-6" d="M47.74,102.92A10.64,10.64,0,0,0,64.46,100"/> <path id="Sourire" class="classic-stroke none-fill path-7" d="M58.36,105.23l21.35,41.11a22.62,22.62,0,0,0,40.23-.18l20.78-40.93"/> </g> </svg>